<svg width="180" height="180" viewBox="0 0 180 180" fill="none" xmlns="http://www.w3.org/2000/svg">
  <defs>
    <linearGradient id="bgGrad" x1="0%" y1="0%" x2="100%" y2="100%">
      <stop offset="0%" style="stop-color:#0ea5e9;stop-opacity:1" />
      <stop offset="100%" style="stop-color:#0284c7;stop-opacity:1" />
    </linearGradient>
    <linearGradient id="receiptGrad" x1="0%" y1="0%" x2="0%" y2="100%">
      <stop offset="0%" style="stop-color:#ffffff;stop-opacity:1" />
      <stop offset="100%" style="stop-color:#f1f5f9;stop-opacity:1" />
    </linearGradient>
    <filter id="shadow" x="-20%" y="-20%" width="140%" height="140%">
      <feDropShadow dx="0" dy="4" stdDeviation="3" flood-color="#000000" flood-opacity="0.1"/>
    </filter>
  </defs>
  
  <!-- 背景 -->
  <rect width="180" height="180" rx="40" fill="url(#bgGrad)"/>
  
  <!-- レシート -->
  <rect x="35" y="25" width="110" height="140" rx="8" fill="url(#receiptGrad)" stroke="#e2e8f0" stroke-width="2" filter="url(#shadow)"/>
  
  <!-- レシート上部の穴 -->
  <circle cx="55" cy="45" r="4" fill="#e5e7eb"/>
  <circle cx="125" cy="45" r="4" fill="#e5e7eb"/>
  
  <!-- レシートヘッダー -->
  <rect x="50" y="60" width="80" height="6" rx="3" fill="#1f2937"/>
  <rect x="50" y="70" width="60" height="4" rx="2" fill="#6b7280"/>
  
  <!-- レシートの項目行 -->
  <rect x="50" y="85" width="70" height="3" rx="1.5" fill="#9ca3af"/>
  <rect x="50" y="95" width="55" height="3" rx="1.5" fill="#9ca3af"/>
  <rect x="50" y="105" width="65" height="3" rx="1.5" fill="#9ca3af"/>
  <rect x="50" y="115" width="45" height="3" rx="1.5" fill="#9ca3af"/>
  <rect x="50" y="125" width="60" height="3" rx="1.5" fill="#9ca3af"/>
  
  <!-- 区切り線 -->
  <line x1="50" y1="140" x2="130" y2="140" stroke="#374151" stroke-width="2"/>
  
  <!-- 合計金額 -->
  <rect x="50" y="150" width="50" height="5" rx="2.5" fill="#1f2937"/>
  
  <!-- カメラアイコン -->
  <circle cx="135" cy="55" r="20" fill="#ffffff" fill-opacity="0.9"/>
  <rect x="125" y="45" width="20" height="15" rx="3" fill="#0ea5e9"/>
  <circle cx="135" cy="52.5" r="5" fill="#ffffff"/>
  <circle cx="135" cy="52.5" r="3" fill="#0ea5e9"/>
  <rect x="130" y="40" width="4" height="3" rx="1" fill="#0ea5e9"/>
</svg>
