<svg width="32" height="32" viewBox="0 0 32 32" fill="none" xmlns="http://www.w3.org/2000/svg">
  <!-- 背景グラデーション -->
  <defs>
    <linearGradient id="bgGradient" x1="0%" y1="0%" x2="100%" y2="100%">
      <stop offset="0%" style="stop-color:#f1f5f9;stop-opacity:1" />
      <stop offset="100%" style="stop-color:#e2e8f0;stop-opacity:1" />
    </linearGradient>
    <linearGradient id="receiptGradient" x1="0%" y1="0%" x2="0%" y2="100%">
      <stop offset="0%" style="stop-color:#ffffff;stop-opacity:1" />
      <stop offset="100%" style="stop-color:#f8fafc;stop-opacity:1" />
    </linearGradient>
  </defs>
  
  <!-- 背景円 -->
  <circle cx="16" cy="16" r="16" fill="url(#bgGradient)"/>
  
  <!-- レシート -->
  <rect x="7" y="5" width="18" height="22" rx="1.5" fill="url(#receiptGradient)" stroke="#e2e8f0" stroke-width="0.5"/>
  
  <!-- レシート上部の穴 -->
  <circle cx="10" cy="8" r="0.8" fill="#e5e7eb"/>
  <circle cx="22" cy="8" r="0.8" fill="#e5e7eb"/>
  
  <!-- レシートの線 -->
  <line x1="10" y1="12" x2="22" y2="12" stroke="#9ca3af" stroke-width="0.8"/>
  <line x1="10" y1="15" x2="20" y2="15" stroke="#9ca3af" stroke-width="0.8"/>
  <line x1="10" y1="18" x2="21" y2="18" stroke="#9ca3af" stroke-width="0.8"/>
  <line x1="10" y1="21" x2="18" y2="21" stroke="#9ca3af" stroke-width="0.8"/>
  
  <!-- 合計線 -->
  <line x1="10" y1="24" x2="22" y2="24" stroke="#374151" stroke-width="1"/>
  
  <!-- カメラアイコン -->
  <circle cx="23" cy="9" r="4" fill="#0ea5e9"/>
  <rect x="21" y="7.5" width="4" height="3" rx="0.5" fill="#ffffff"/>
  <circle cx="23" cy="9" r="1" fill="#0ea5e9"/>
  <rect x="22" y="6.5" width="0.8" height="0.8" rx="0.2" fill="#ffffff"/>
</svg>
